<?xml version="1.0" encoding="iso-8859-1"?>
<!-- Uploaded to: SVG Repo, www.svgrepo.com, Generator: SVG Repo Mixer Tools -->
<svg fill="#ffffff" height="800px" width="800px" version="1.1" id="Layer_1" xmlns="http://www.w3.org/2000/svg" xmlns:xlink="http://www.w3.org/1999/xlink" 
	 viewBox="0 0 512.004 512.004" xml:space="preserve">
<g>
	<g>
		<g>
			<path d="M119.471,341.336h51.2c4.719,0,8.533-3.823,8.533-8.533c0-4.71-3.814-8.533-8.533-8.533h-51.2
				c-4.719,0-8.533,3.823-8.533,8.533C110.938,337.513,114.752,341.336,119.471,341.336z"/>
			<path d="M187.738,358.403h-85.333c-4.719,0-8.533,3.823-8.533,8.533s3.814,8.533,8.533,8.533h85.333
				c4.719,0,8.533-3.823,8.533-8.533S192.457,358.403,187.738,358.403z"/>
			<path d="M385.929,192.795c3.72,5.743,9.446,9.694,16.136,11.128c1.801,0.384,3.61,0.58,5.402,0.58
				c1.997,0,3.951-0.299,5.879-0.759l14.737,22.767c1.63,2.517,4.369,3.891,7.168,3.891c1.596,0,3.2-0.444,4.625-1.365
				c3.959-2.56,5.094-7.842,2.534-11.802l-14.754-22.801c2.295-2.978,3.985-6.4,4.796-10.189c1.434-6.682,0.179-13.525-3.55-19.268
				l-9.276-14.319l7.168-4.642c3.959-2.56,5.094-7.842,2.534-11.802l-18.551-28.655c-2.56-3.959-7.868-5.077-11.802-2.526
				l-7.33,4.753l-27.802-40.841c1.946-4.881,3.089-10.172,3.089-15.744c0-23.526-19.14-42.667-42.667-42.667
				c-13.875,0-26.112,6.767-33.911,17.067h-96.333c-10.812-15.454-28.706-25.6-48.956-25.6c-32.93,0-59.733,26.795-59.733,59.733
				V222.73C65.886,226.698,51.2,243.936,51.2,264.535v128h-8.533c-4.71,0-8.533,3.823-8.533,8.533v25.6H25.6
				c-4.71,0-8.533,3.823-8.533,8.533v25.6H8.533c-4.71,0-8.533,3.823-8.533,8.533v34.133c0,4.71,3.823,8.533,8.533,8.533H281.6
				c4.719,0,8.533-3.823,8.533-8.533v-34.133c0-4.71-3.814-8.533-8.533-8.533h-8.533v-25.6c0-4.71-3.814-8.533-8.533-8.533H256
				v-25.6c0-4.71-3.814-8.533-8.533-8.533h-8.533v-128c0-20.599-14.677-37.837-34.133-41.805V76.802h85.555
				c6.963,9.207,17.51,15.394,29.594,16.631l28.715,42.172l-6.989,4.531c-3.959,2.56-5.094,7.842-2.534,11.802l18.543,28.655
				c1.638,2.517,4.378,3.891,7.177,3.891c1.596,0,3.2-0.435,4.625-1.365l7.168-4.642L385.929,192.795z M136.533,51.202
				c0-4.71,3.823-8.533,8.533-8.533c4.719,0,8.533,3.823,8.533,8.533v204.8c0,4.71-3.814,8.533-8.533,8.533
				c-4.71,0-8.533-3.823-8.533-8.533V51.202z M247.467,443.735H256v17.067H34.133v-17.067h8.533H247.467z M221.867,264.535v128
				h-153.6v-128c0-11.127,7.134-20.617,17.067-24.132v7.066c0,2.133,0.128,4.233,0.341,6.306c0.034,0.299,0.102,0.589,0.137,0.887
				c0.222,1.801,0.495,3.584,0.87,5.342c0.06,0.265,0.145,0.529,0.205,0.794c0.41,1.775,0.879,3.524,1.442,5.24
				c0.094,0.273,0.205,0.538,0.299,0.811c0.58,1.69,1.229,3.354,1.954,4.975c0.137,0.299,0.29,0.597,0.435,0.905
				c0.734,1.562,1.527,3.089,2.389,4.582c0.188,0.333,0.401,0.666,0.606,0.998c0.87,1.434,1.784,2.825,2.765,4.173
				c0.247,0.341,0.503,0.683,0.759,1.016c1.015,1.331,2.082,2.62,3.2,3.857c0.265,0.299,0.538,0.606,0.811,0.905
				c1.203,1.271,2.458,2.492,3.755,3.661c0.171,0.145,0.307,0.316,0.478,0.461c0.085,0.068,0.171,0.128,0.256,0.196
				c1.476,1.28,3.012,2.492,4.617,3.627l0.23,0.179c6.775,4.745,14.558,8.124,22.972,9.728c0.35,0.068,0.717,0.102,1.067,0.162
				c1.613,0.282,3.234,0.521,4.881,0.666c0.794,0.068,1.587,0.077,2.381,0.119c0.964,0.043,1.911,0.145,2.884,0.145
				c0.282,0,0.555-0.034,0.836-0.043c0.939-0.009,1.877-0.085,2.825-0.145c1.152-0.068,2.295-0.137,3.43-0.273
				c0.307-0.034,0.606-0.034,0.913-0.068c0.785-0.111,1.545-0.29,2.321-0.427c0.785-0.137,1.57-0.256,2.347-0.427
				c1.041-0.222,2.057-0.512,3.081-0.794c0.87-0.239,1.749-0.461,2.603-0.734c0.538-0.179,1.05-0.393,1.579-0.58
				c23.151-8.235,39.799-30.302,39.799-56.243v-1.92v-5.146C214.741,243.919,221.867,253.408,221.867,264.535z M282.47,59.735H204.8
				c0-2.697-0.239-5.333-0.589-7.936c-0.068-0.486-0.145-0.964-0.222-1.451c-0.41-2.62-0.956-5.188-1.698-7.68h80.179
				c-0.563,2.756-0.87,5.615-0.87,8.533C281.6,54.129,281.907,56.979,282.47,59.735z M362.991,126.329l-23.953-35.183
				c0.128-0.051,0.23-0.128,0.358-0.179c2.423-0.922,4.71-2.074,6.895-3.405c0.171-0.102,0.35-0.179,0.521-0.282
				c2.406-1.51,4.651-3.226,6.707-5.171l23.791,34.944L362.991,126.329z"/>
			<path d="M503.471,324.269c4.719,0,8.533-3.823,8.533-8.533v-51.2c0-4.71-3.814-8.533-8.533-8.533H384.004
				c-4.719,0-8.533,3.823-8.533,8.533v51.2c0,4.71,3.814,8.533,8.533,8.533h8.533v119.467h-8.533c-4.719,0-8.533,3.823-8.533,8.533
				v51.2c0,4.71,3.814,8.533,8.533,8.533h119.467c4.719,0,8.533-3.823,8.533-8.533v-51.2c0-4.71-3.814-8.533-8.533-8.533h-8.533
				V324.269H503.471z"/>
		</g>
	</g>
</g>
</svg>