<svg version="1.1" id="Layer_1" xmlns="http://www.w3.org/2000/svg" xmlns:xlink="http://www.w3.org/1999/xlink" x="0px" y="0px"
	 viewBox="0 0 512 512" xml:space="preserve">
<g>
	<g fill="white">
		<rect x="125.585" y="188.377" width="144.906" height="19.321"/>
	</g>
</g>
<g>
	<g fill="white">
		<rect x="125.585" y="256" width="193.208" height="19.321"/>
	</g>
</g>
<g>
	<g fill="white">
		<rect x="125.585" y="323.623" width="193.208" height="19.321"/>
	</g>
</g>
<g fill="white">
	<g>
		<path d="M464.887,33.811H49.528C22.882,33.811,0,54.297,0,80.958v173.783c0,26.66,21.67,48.354,48.302,48.354
			c10.915,0,21.736-3.774,28.981-9.899v174.125c0,5.335,5.533,10.868,10.868,10.868h338.113c5.335,0,8.453-5.533,8.453-10.868
			V293.196c9.66,6.125,18.066,9.899,28.981,9.899c26.632,0,48.302-21.693,48.302-48.354V80.958
			C512,54.297,491.533,33.811,464.887,33.811z M415.396,254.83v204.038H96.604V254.83v-96.641c0-5.326,5.571-8.453,10.939-8.453
			h299.33c5.368,0,8.524,3.127,8.524,8.453V254.83z M492.679,254.741c0,16.009-13,29.033-28.981,29.033
			s-28.981-12.986-28.981-28.943v-96.641v-8.453h19.321v-19.321h-47.165h-299.33h-49.58v19.321h19.321v8.453v96.641
			c0,15.958-13,28.943-28.981,28.943c-15.981,0-28.981-13.024-28.981-29.033V80.958c0-16.009,14.217-27.826,30.208-27.826h415.359
			c15.991,0,27.792,11.816,27.792,27.826V254.741z"/>
	</g>
</g>
<g>
</g>
<g>
</g>
<g>
</g>
<g>
</g>
<g>
</g>
<g>
</g>
<g>
</g>
<g>
</g>
<g>
</g>
<g>
</g>
<g>
</g>
<g>
</g>
<g>
</g>
<g>
</g>
<g>
</g>
</svg>
