<?xml version="1.0" encoding="iso-8859-1"?>
<!-- Generator: Adobe Illustrator 19.0.0, SVG Export Plug-In . SVG Version: 6.00 Build 0)  -->
<svg version="1.1" id="Layer_1" xmlns="http://www.w3.org/2000/svg" xmlns:xlink="http://www.w3.org/1999/xlink" x="0px" y="0px"
	 viewBox="0 0 512 512" style="enable-background:new 0 0 512 512;" xml:space="preserve">
<path style="fill:#2D2D2D;" id="part1" d="M460.8,88.456H51.2c-17.2,0-31.2,14-31.2,31.2v272.688c0,17.2,14,31.2,31.2,31.2h409.6
	c17.2,0,31.2-14,31.2-31.2V119.656C492,102.448,478,88.456,460.8,88.456z M188.4,359.976V151.112l195.616,104.432L188.4,359.976z"/>
<g>
	<path style="fill:#DB2B42;" id="part2" d="M460.8,68.456H51.2c-28.16,0-51.2,23.04-51.2,51.2v272.688c0,28.16,23.04,51.2,51.2,51.2h409.6
		c28.16,0,51.2-23.04,51.2-51.2V119.656C512,91.496,488.96,68.456,460.8,68.456z M492,392.344c0,17.2-14,31.2-31.2,31.2H51.2
		c-17.2,0-31.2-14-31.2-31.2V119.656c0-17.2,14-31.2,31.2-31.2h409.6c17.2,0,31.2,14,31.2,31.2V392.344z"/>
	<polygon style="fill:#DB2B42;" id="part3" points="188.4,359.976 384.016,255.544 188.4,151.112 	"/>
</g>
<g>
</g>
<g>
</g>
<g>
</g>
<g>
</g>
<g>
</g>
<g>
</g>
<g>
</g>
<g>
</g>
<g>
</g>
<g>
</g>
<g>
</g>
<g>
</g>
<g>
</g>
<g>
</g>
<g>
</g>
</svg>
